<?xml version="1.0" standalone="no"?>
<!DOCTYPE svg PUBLIC "-//W3C//DTD SVG 20010904//EN"
 "http://www.w3.org/TR/2001/REC-SVG-20010904/DTD/svg10.dtd">
<svg version="1.0" xmlns="http://www.w3.org/2000/svg"
 width="628.000000pt" height="472.000000pt" viewBox="0 0 628.000000 472.000000"
 preserveAspectRatio="xMidYMid meet">

<g transform="translate(0.000000,472.000000) scale(0.100000,-0.100000)"
fill="#000000" stroke="none">
<path d="M2568 4560 c27 -25 28 -42 5 -62 -32 -28 -84 -36 -138 -22 -190 51
-212 45 -375 -112 -58 -56 -101 -89 -130 -99 -57 -20 -61 -19 -48 10 15 33 6
40 -29 22 -49 -26 -86 -73 -79 -100 7 -31 21 -36 126 -48 73 -8 88 -13 108
-35 31 -35 24 -47 -29 -56 -147 -27 -150 -38 -43 -165 52 -61 71 -112 42 -114
-7 0 -90 -1 -185 -2 -240 -3 -242 -11 -19 -77 147 -43 176 -61 176 -106 0 -31
-14 -30 -75 2 -46 25 -54 26 -129 19 -141 -14 -205 -10 -294 19 -51 17 -86 34
-89 44 -4 9 -21 40 -39 67 -40 64 -48 89 -34 116 12 21 39 23 83 4 14 -6 20
-2 24 14 4 17 8 19 19 10 15 -12 34 -4 34 15 0 13 36 32 73 38 30 5 21 21 -20
36 -32 11 -154 44 -345 93 -21 5 -38 16 -40 26 -2 12 -22 20 -73 29 -155 27
-231 10 -266 -59 -36 -70 -98 -228 -94 -240 2 -7 6 -25 10 -41 5 -22 9 -26 18
-17 16 16 27 14 27 -5 0 -12 7 -14 29 -9 26 5 29 3 35 -26 11 -55 7 -139 -9
-168 -20 -40 -72 -81 -101 -81 -14 0 -41 7 -61 15 -19 8 -45 15 -57 15 -27 0
-116 -82 -116 -107 0 -29 35 -79 73 -102 38 -23 152 -49 164 -38 3 4 1 18 -5
32 -6 14 -11 25 -9 25 1 0 17 4 35 9 29 9 34 7 41 -11 4 -12 39 -41 77 -64 55
-33 76 -53 102 -97 39 -67 71 -94 130 -109 54 -13 82 -53 82 -117 0 -34 -6
-49 -26 -68 -34 -32 -87 -29 -92 5 -3 18 -8 21 -27 16 -19 -5 -36 6 -89 55
-45 42 -74 61 -91 61 -37 0 -100 -35 -123 -67 -26 -37 -44 -96 -36 -117 8 -22
56 -46 91 -46 32 0 93 49 93 74 0 49 71 -15 146 -130 57 -89 62 -105 41 -122
-16 -14 -126 -32 -192 -32 -28 0 -66 -4 -85 -10 -51 -15 -67 -5 -102 63 -54
107 -126 206 -163 224 -34 16 -36 16 -92 -13 -69 -35 -122 -104 -152 -198 -30
-91 -30 -102 -4 -98 18 3 23 -3 29 -33 8 -42 23 -55 31 -26 8 31 20 26 34 -14
16 -44 26 -44 35 0 8 45 21 53 36 21 15 -35 24 -33 32 7 l7 32 20 -32 c21 -32
39 -36 39 -7 0 25 17 16 58 -31 45 -51 72 -102 72 -137 1 -23 1 -23 16 -3 l15
20 15 -20 c36 -47 67 -122 71 -174 6 -64 -4 -75 -80 -90 -23 -5 -63 -15 -90
-22 -45 -12 -50 -12 -102 14 -40 19 -60 24 -73 18 -9 -5 -25 -12 -36 -15 -17
-6 -18 -14 -14 -79 8 -128 47 -170 140 -149 43 10 55 10 74 -3 17 -11 50 -15
116 -15 51 0 122 -5 158 -11 79 -12 212 -56 222 -72 13 -21 9 -55 -13 -99 -33
-68 -57 -80 -183 -92 -190 -18 -215 -16 -265 22 -32 23 -55 32 -83 32 -53 0
-73 -12 -104 -65 -26 -44 -58 -75 -79 -75 -6 0 -18 23 -28 50 -30 83 -77 59
-77 -39 0 -53 28 -76 90 -75 65 1 110 29 138 87 37 77 63 76 242 -10 63 -30
138 -63 165 -73 111 -39 191 -91 230 -148 30 -43 24 -58 -26 -66 -21 -3 -39
-10 -39 -15 0 -4 24 -14 53 -22 60 -16 75 -45 35 -73 -31 -22 -79 -20 -133 6
l-45 22 -27 -25 c-58 -53 -59 -53 -96 -30 -42 26 -59 26 -81 2 -17 -18 -16
-19 16 -26 18 -4 40 -13 48 -20 36 -32 69 -36 128 -15 68 24 113 25 175 4 79
-27 115 -98 62 -122 -58 -27 -98 -8 -88 39 5 24 2 29 -14 29 -45 0 -71 -73
-37 -101 10 -8 49 -16 88 -19 63 -5 72 -8 85 -32 27 -48 -19 -98 -90 -98 -26
0 -33 6 -46 39 -9 22 -22 42 -30 45 -13 6 -103 -68 -103 -85 0 -4 24 -7 53 -6
49 2 57 -1 96 -36 22 -20 47 -37 54 -37 8 0 53 13 100 30 133 46 227 36 227
-24 0 -13 -18 -51 -40 -85 -22 -34 -40 -66 -40 -71 0 -12 29 -19 90 -22 43 -3
45 -4 42 -30 l-3 -27 65 2 c75 2 102 -15 115 -74 11 -47 -3 -78 -39 -90 -16
-6 -30 -14 -30 -18 0 -4 24 -16 53 -26 40 -13 67 -16 110 -11 31 4 57 11 57
15 0 4 -7 23 -17 41 -14 29 -14 36 -2 59 8 14 35 40 59 58 25 19 54 40 65 48
24 19 39 19 54 1 10 -12 5 -24 -24 -61 -19 -26 -33 -51 -29 -56 3 -5 21 -9 40
-9 31 0 37 -4 47 -31 13 -32 24 -34 95 -13 18 5 22 2 22 -14 0 -12 4 -23 9
-26 13 -8 210 126 260 178 25 25 58 71 75 102 17 32 38 62 48 68 11 7 42 3
105 -12 273 -67 514 -48 723 58 41 21 99 54 129 74 56 37 77 40 48 8 -10 -10
-17 -25 -17 -33 0 -25 130 -121 254 -187 67 -35 176 -106 245 -158 121 -92
151 -108 151 -80 0 27 50 56 99 57 71 1 85 9 85 54 1 39 1 39 64 59 34 11 62
24 62 28 0 20 -134 168 -152 168 -23 0 -23 5 3 41 26 37 47 37 94 -1 21 -16
42 -30 47 -30 4 0 27 -17 51 -38 71 -65 86 -72 154 -72 34 0 65 5 68 10 3 6
-3 22 -14 37 -16 20 -18 29 -10 39 17 21 44 17 102 -13 48 -26 61 -28 162 -28
91 1 120 5 168 24 64 25 209 119 215 139 3 9 -16 12 -70 12 -49 0 -81 5 -94
14 -18 14 -18 15 10 45 32 34 30 40 -17 56 -22 7 -32 16 -32 30 0 43 177 75
296 54 85 -15 161 5 219 58 64 57 47 103 -38 103 -42 0 -50 -4 -94 -51 l-47
-51 -155 0 c-85 0 -159 3 -165 6 -6 4 -11 21 -11 38 0 40 69 108 127 126 27 8
125 12 304 12 159 0 280 4 303 11 52 14 137 100 161 162 10 26 16 50 13 52 -3
3 -44 -13 -91 -35 -89 -42 -217 -66 -217 -42 0 6 5 14 10 17 25 15 4 20 -75
16 -61 -2 -100 2 -140 14 -30 10 -55 20 -55 24 0 3 29 42 65 86 87 107 96 147
39 161 -46 12 -68 -13 -49 -58 4 -11 0 -20 -14 -27 -26 -14 -105 20 -127 55
-29 44 -15 67 53 89 48 15 61 24 57 35 -15 38 -10 44 48 52 31 4 81 14 110 22
29 8 72 20 96 26 41 11 43 13 37 40 -8 38 21 68 75 76 27 5 40 12 40 23 1 24
20 44 70 76 47 30 41 44 -12 26 -46 -16 -79 -13 -123 10 -25 13 -72 24 -127
30 -93 9 -126 21 -171 63 -15 14 -33 26 -39 26 -6 0 -43 -12 -82 -26 -85 -31
-195 -37 -240 -14 -49 25 -69 61 -68 125 0 71 34 141 82 173 37 25 39 25 144
1 l58 -14 22 28 c20 25 27 27 101 27 110 0 154 -9 166 -32 9 -16 6 -25 -11
-43 -12 -13 -33 -26 -46 -29 -46 -12 -24 -25 34 -20 l57 5 -45 -28 c-61 -38
-41 -39 137 -8 179 31 204 39 233 70 22 23 22 25 4 31 -40 14 -171 76 -213
101 l-44 26 24 13 c15 9 60 13 125 14 98 0 164 13 164 31 0 5 -2 9 -5 9 -19 0
-290 41 -293 45 -16 16 151 205 182 205 31 0 104 -41 109 -62 8 -29 63 -4 76
34 27 76 4 95 -197 172 -132 50 -182 54 -182 12 0 -50 -75 -133 -157 -172 -37
-19 -75 -27 -133 -31 -81 -6 -102 -15 -81 -36 17 -17 13 -43 -13 -74 -13 -15
-26 -38 -30 -51 -10 -29 -23 -35 -142 -62 -67 -15 -114 -20 -138 -16 l-36 7 0
77 0 77 85 85 c97 97 106 124 48 149 -18 8 -33 18 -33 22 0 12 76 38 132 44
78 10 128 24 125 36 -1 6 23 20 53 30 30 10 63 23 72 28 17 11 146 44 210 55
30 6 47 2 81 -19 24 -14 49 -25 56 -25 32 0 181 74 211 105 42 44 34 54 -17
21 -77 -51 -145 -54 -295 -14 -94 25 -125 20 -202 -32 -76 -52 -216 -90 -351
-95 -76 -3 -96 -13 -227 -124 -113 -95 -147 -117 -188 -122 -69 -10 -4 113
114 214 31 27 54 52 51 57 -2 4 -29 11 -59 14 -64 8 -93 26 -80 49 5 8 45 39
89 68 44 28 90 62 102 75 12 13 30 24 40 24 35 0 118 48 155 88 22 24 70 56
115 79 77 38 78 38 187 36 132 -3 176 7 210 48 40 47 35 64 -11 41 -31 -16
-71 -21 -208 -26 -93 -4 -187 -11 -208 -17 -41 -11 -107 -63 -107 -84 0 -24
-49 -73 -91 -89 -23 -9 -42 -16 -43 -14 -12 22 -26 83 -26 113 0 65 53 130 96
119 28 -7 228 126 248 165 9 16 16 46 16 65 l0 35 -56 3 -55 3 -24 70 c-27 79
-31 115 -13 133 15 15 58 16 58 2 0 -5 5 -10 10 -10 6 0 10 14 10 30 0 22 -11
41 -39 69 -22 22 -55 64 -75 95 -65 102 -169 141 -271 102 -53 -21 -239 -209
-328 -334 -51 -71 -57 -83 -46 -101 17 -26 2 -44 -68 -83 -29 -16 -53 -32 -53
-35 0 -3 21 -3 47 1 61 8 105 43 157 125 42 65 101 121 129 121 19 0 34 -36
42 -101 6 -50 4 -57 -25 -97 -33 -46 -80 -72 -130 -72 -26 0 -35 -8 -71 -65
-84 -133 -189 -210 -413 -299 -103 -42 -106 -42 -106 -17 0 63 73 146 156 176
61 23 59 22 46 38 -9 11 -2 18 37 37 51 24 140 104 128 116 -4 4 -43 -12 -88
-34 -73 -38 -150 -56 -148 -34 2 30 79 106 165 164 128 87 177 139 169 182 -4
18 0 46 9 68 21 50 8 77 -59 124 -63 43 -277 112 -377 121 -79 7 -109 -7 -136
-63 -19 -40 -14 -46 48 -64 52 -15 61 -23 67 -66 7 -54 -11 -69 -63 -55 -42
12 -54 4 -54 -35 0 -34 29 -50 123 -69 56 -12 91 -24 97 -34 15 -28 -119 -230
-172 -260 -65 -37 -39 37 38 111 30 28 54 57 54 63 0 15 -76 25 -191 25 -104
0 -141 -19 -177 -92 -27 -54 -23 -85 14 -94 30 -8 74 19 74 45 0 34 12 51 34
51 29 0 46 -18 46 -50 0 -37 -25 -67 -68 -80 -105 -32 -122 -42 -142 -79 -35
-70 -134 -141 -196 -141 -36 0 -32 51 8 113 37 58 31 82 -22 82 -29 0 -37 -6
-60 -45 -32 -55 -77 -87 -137 -96 -77 -11 -106 15 -140 128 -17 58 -12 78 17
78 26 0 70 -43 70 -69 0 -25 45 -61 76 -61 25 0 27 5 24 57 -1 28 3 33 27 39
51 13 128 51 150 75 38 41 56 98 49 151 -5 39 -3 54 12 76 11 15 24 43 31 62
7 24 23 42 50 57 100 57 62 160 -66 179 -59 9 -185 -21 -222 -52 -33 -28 -54
-78 -47 -115 3 -13 5 -26 5 -28 1 -2 10 4 21 14 l21 19 -3 -74 -3 -74 -96 -1
c-92 0 -97 -1 -120 -28 -19 -22 -37 -30 -87 -37 -66 -9 -119 -35 -249 -120
-40 -27 -73 -44 -73 -39 0 6 9 27 20 49 27 52 25 68 -3 42 -27 -25 -39 -19
-31 14 5 20 2 24 -19 24 -24 0 -58 -27 -105 -83 -37 -46 -61 -34 -94 47 -31
77 -34 102 -13 129 10 14 11 26 3 49 -6 16 -8 54 -4 84 3 29 1 98 -5 151 -10
89 -9 99 7 108 9 5 43 27 75 48 52 34 59 43 59 71 0 29 -4 34 -39 44 -21 7
-58 12 -82 12 l-43 0 22 -20z m-144 -167 c-14 -62 -27 -78 -68 -81 -45 -4 -44
1 9 62 46 53 69 60 59 19z m1930 -97 c47 -20 51 -31 19 -60 -32 -30 -59 -33
-85 -9 -34 30 -19 71 30 82 1 1 18 -5 36 -13z m884 -28 c19 -40 1 -68 -43 -68
-32 0 -65 21 -65 41 0 6 11 21 25 35 32 32 65 28 83 -8z m-3038 -6 c0 -34 -66
-42 -101 -12 l-24 19 63 1 c34 0 62 -4 62 -8z m67 -53 c9 -9 20 -9 44 0 26 9
36 9 46 -2 12 -11 43 -145 43 -183 0 -22 -21 -17 -52 13 l-28 27 0 -32 c0 -22
-5 -32 -15 -32 -8 0 -15 5 -15 11 0 6 -8 8 -19 4 -16 -5 -22 1 -30 32 -12 42
-15 156 -4 166 9 10 17 9 30 -4z m2968 -259 c12 -37 -36 -90 -82 -90 -41 0
-37 22 13 66 27 24 52 43 56 44 4 0 9 -9 13 -20z m-4250 -24 c26 -18 27 -89 2
-113 -22 -22 -94 -24 -108 -3 -13 19 -5 95 11 115 16 19 70 19 95 1z m4326
-118 c11 -42 11 -43 -28 -75 -41 -35 -63 -42 -63 -19 0 28 -22 28 -52 0 -16
-16 -54 -66 -85 -111 -75 -113 -159 -188 -266 -241 -73 -37 -91 -42 -114 -34
-16 5 -27 16 -25 23 2 7 6 36 9 64 3 27 12 58 20 67 14 16 77 55 195 122 62
35 96 72 109 118 18 67 46 89 140 109 46 9 98 17 116 18 30 1 33 -2 44 -41z
m-3014 -40 c72 -51 113 -118 113 -182 0 -54 -31 -136 -51 -136 -8 0 -9 19 -4
68 11 110 -17 150 -138 195 -63 23 -77 32 -85 56 -6 16 -7 32 -4 36 4 4 33 5
64 2 45 -4 69 -13 105 -39z m-1021 -70 c13 -26 13 -28 -5 -28 -38 0 -51 11
-51 44 0 59 19 53 56 -16z m2924 -40 c0 -12 -73 -81 -123 -117 -29 -21 -31 -6
-3 38 38 59 126 115 126 79z m-1263 -64 c-21 -69 -146 -178 -174 -151 -15 16
11 57 52 81 56 33 82 61 101 106 12 28 17 32 24 19 6 -10 5 -31 -3 -55z
m-1704 21 c1 -5 -15 -11 -35 -13 -40 -3 -41 -2 -32 21 6 16 64 9 67 -8z m52
-66 c75 -13 125 -28 125 -39 0 -4 -11 -15 -25 -24 -16 -11 -24 -24 -22 -39 2
-20 -2 -22 -33 -19 -19 2 -44 9 -55 15 -29 15 -135 108 -135 118 0 9 44 6 145
-12z m-185 -60 c113 -42 170 -72 176 -91 3 -11 2 -24 -3 -28 -9 -8 -213 -60
-237 -60 -24 0 -30 22 -11 36 10 8 17 15 14 17 -2 2 -34 12 -71 22 -73 19 -79
28 -52 71 37 56 96 66 184 33z m962 -6 c16 -10 38 -32 48 -48 20 -32 41 -110
33 -119 -3 -3 -22 6 -42 19 -19 14 -41 25 -48 25 -30 0 -63 101 -42 126 14 18
15 18 51 -3z m485 -61 c11 -23 24 -70 28 -105 9 -76 26 -112 65 -132 72 -37
133 -2 165 95 9 28 18 50 20 50 2 0 11 3 21 7 15 6 16 0 10 -60 -4 -37 -6 -67
-3 -67 2 0 40 42 82 93 43 50 84 98 90 105 9 10 18 -12 40 -104 26 -113 28
-159 9 -223 -6 -21 -5 -23 17 -16 85 27 211 105 248 156 35 47 98 87 149 95
26 3 82 17 124 30 62 20 85 33 122 71 52 52 54 50 58 -45 l3 -62 38 26 c21 14
41 23 44 20 3 -2 -4 -33 -16 -68 l-22 -63 21 -17 c18 -15 21 -26 18 -90 l-3
-73 32 -3 c20 -2 89 19 194 58 89 33 163 59 165 57 2 -2 -7 -19 -21 -37 -35
-47 -61 -121 -85 -242 -22 -105 -86 -250 -116 -262 -17 -6 -17 -14 -3 174 6
83 9 153 6 156 -2 3 -57 -22 -122 -56 -65 -33 -119 -59 -121 -58 -1 2 -12 71
-24 153 -29 202 -56 365 -62 370 -4 4 -263 -261 -447 -457 -35 -37 -68 -68
-72 -68 -4 0 -5 41 -2 90 6 86 1 103 -22 81 -22 -20 -217 -122 -223 -116 -4 3
5 73 19 156 14 82 21 149 16 149 -5 0 -103 -75 -219 -167 -115 -93 -213 -169
-218 -171 -6 -2 -10 52 -10 135 0 169 -4 185 -39 181 -21 -2 -42 -27 -111
-130 -47 -70 -88 -127 -91 -128 -4 0 -23 25 -44 55 -33 47 -37 59 -32 92 8 48
31 65 75 57 30 -6 38 -2 78 37 75 73 86 100 118 282 9 48 24 44 53 -11z m1001
26 c-2 -6 -20 -20 -39 -30 -32 -17 -34 -17 -38 -1 -2 9 5 23 15 30 22 16 67
17 62 1z m-1881 -70 c5 -7 16 -34 23 -60 13 -48 51 -95 125 -154 51 -40 33
-46 -65 -23 -98 25 -113 42 -134 156 -23 125 -23 127 12 109 16 -8 33 -21 39
-28z m2458 -77 c0 -21 -7 -46 -15 -56 -17 -20 -110 -69 -117 -61 -14 14 24
104 61 144 36 39 41 41 55 27 9 -8 16 -32 16 -54z m-2060 -286 c55 -30 102
-56 105 -57 3 -2 25 -26 49 -55 l43 -52 -25 -43 c-51 -85 -105 -153 -118 -150
-8 2 -41 14 -74 27 -182 71 -658 246 -661 243 -2 -2 52 -115 120 -251 68 -136
122 -247 119 -247 -2 0 -21 9 -43 20 -32 17 -47 35 -85 110 -26 49 -62 103
-80 119 -32 27 -33 33 -33 93 1 74 -16 134 -43 148 -10 6 -23 19 -29 30 -8 15
-6 21 10 30 16 8 44 3 133 -25 61 -19 120 -38 130 -41 14 -4 17 1 17 30 0 20
5 36 11 36 6 0 35 -20 65 -44 75 -62 150 -102 219 -121 33 -8 65 -15 72 -15
18 0 17 124 -1 208 -7 34 -10 62 -7 62 4 0 52 -25 106 -55z m2710 45 c3 -5 -9
-17 -27 -26 -48 -25 -201 -84 -206 -80 -2 3 15 23 37 45 52 52 177 92 196 61z
m-378 -246 c-9 -55 -50 -108 -116 -153 -60 -41 -71 -56 -71 -96 0 -31 14 -39
41 -24 18 9 25 8 41 -9 20 -20 20 -20 147 43 69 34 137 65 150 70 l23 7 -7
-71 c-6 -57 -4 -71 6 -71 8 0 56 11 106 24 51 12 95 21 97 18 3 -2 1 -15 -5
-29 -16 -42 -12 -44 59 -43 116 3 117 0 32 -49 -33 -19 -60 -38 -60 -42 0 -4
23 -15 50 -24 35 -12 50 -22 50 -34 0 -10 -36 -60 -81 -112 -44 -52 -107 -133
-139 -180 -32 -47 -80 -105 -106 -128 -26 -23 -45 -43 -43 -45 2 -3 58 -12
124 -21 84 -12 146 -15 208 -10 83 7 89 6 85 -11 -7 -38 -124 -82 -288 -110
-83 -14 -176 -34 -205 -45 -59 -22 -121 -61 -118 -75 1 -5 3 -15 5 -22 4 -16
-176 -142 -203 -142 -21 0 -35 40 -22 63 4 8 49 59 99 113 50 55 160 182 244
284 85 102 189 227 232 279 43 51 78 96 78 100 0 4 -22 15 -50 25 -27 10 -50
22 -50 28 0 5 14 29 30 53 17 24 30 47 30 50 0 4 -48 6 -107 4 l-108 -4 -20
42 c-34 70 -37 71 -100 24 -54 -41 -256 -154 -330 -185 l-38 -16 6 47 c3 27
19 80 36 120 17 40 31 76 31 81 0 4 -24 5 -52 1 -29 -3 -55 -5 -57 -3 -3 3 11
21 31 42 20 20 48 62 63 92 45 92 74 115 195 156 85 29 84 30 77 -12z m1393
-87 c0 -35 -85 -77 -156 -77 -45 0 -46 0 -39 28 9 37 14 41 66 51 71 14 129
13 129 -2z m-4560 -203 l45 -46 -43 5 c-54 7 -72 21 -72 58 0 41 19 36 70 -17z
m-240 -69 c0 -14 -12 -38 -27 -55 -58 -64 -141 -56 -181 17 -13 24 -21 47 -17
53 4 6 52 10 116 10 l109 0 0 -25z m555 -37 c91 -44 135 -86 170 -161 33 -70
81 -235 71 -244 -2 -3 -15 3 -28 11 -14 9 -56 27 -94 40 -38 13 -121 44 -184
69 -166 65 -158 64 -167 26 -8 -27 -16 -34 -56 -46 -27 -8 -50 -20 -53 -26 -2
-7 3 -30 11 -51 21 -49 14 -77 -30 -120 -19 -20 -35 -40 -35 -45 0 -5 111 -87
248 -182 136 -95 281 -198 322 -229 l75 -55 -52 -3 c-32 -2 -63 3 -81 12 -16
8 -98 42 -181 76 -232 93 -220 83 -196 151 8 23 15 47 15 53 0 6 -45 36 -100
66 -57 32 -100 61 -100 70 0 8 -28 31 -62 50 -34 19 -63 40 -65 46 -2 5 21 20
52 33 30 13 55 26 55 29 0 4 -16 17 -36 30 -41 27 -41 30 5 34 18 1 35 6 38
11 3 5 -18 32 -46 61 -28 28 -51 57 -51 64 0 10 25 12 119 6 65 -4 131 -4 146
0 l28 7 -23 24 c-13 14 -21 28 -18 31 4 3 56 -10 116 -30 109 -35 307 -75 318
-63 11 11 -80 133 -153 204 -40 39 -73 74 -73 78 0 9 51 -5 95 -27z m1761
-314 c-6 -117 -32 -237 -65 -301 -24 -48 -90 -110 -128 -120 -54 -15 -225 -9
-266 10 l-39 17 21 26 c20 26 79 93 256 289 50 55 115 128 145 163 50 59 55
62 68 45 11 -14 13 -42 8 -129z m-1027 -178 c233 -233 234 -234 210 -249 -61
-39 -167 -45 -245 -12 -94 39 -174 177 -199 340 -17 111 -19 155 -7 155 4 0
112 -105 241 -234z m3317 -60 c47 -35 -32 -73 -116 -55 -55 12 -75 23 -66 38
18 29 149 41 182 17z m-356 -128 c0 -19 -64 -57 -117 -70 -27 -6 -96 -24 -155
-40 -148 -41 -177 -34 -73 16 115 55 200 86 264 95 81 12 81 12 81 -1z m-1770
-135 c-29 -107 -139 -328 -155 -312 -9 10 -56 243 -51 255 3 7 36 33 73 58 37
24 86 60 108 79 35 31 40 33 43 16 2 -10 -6 -53 -18 -96z m-1370 -40 c30 -16
58 -32 62 -38 11 -14 10 -205 -1 -205 -13 0 -57 69 -89 140 -32 71 -48 130
-35 130 4 0 33 -12 63 -27z m1130 -42 c0 -5 11 -62 25 -127 14 -65 25 -128 25
-139 0 -14 -20 -38 -57 -68 -59 -48 -178 -116 -187 -106 -9 9 -68 340 -63 353
3 7 25 18 50 24 24 6 75 25 113 41 73 32 94 37 94 22z m-935 -37 l73 -26 5
-43 c4 -23 9 -98 13 -165 l7 -123 -52 29 c-28 16 -69 45 -91 65 -38 35 -40 40
-40 95 0 33 -3 89 -7 127 -4 50 -3 67 6 67 7 0 46 -12 86 -26z m243 -56 c81
-10 93 -14 97 -32 8 -36 35 -280 35 -314 0 -32 -1 -33 -37 -27 -53 9 -183 47
-188 55 -6 10 -33 186 -41 269 l-7 74 24 -6 c13 -4 66 -12 117 -19z m402 -20
c0 -13 14 -90 30 -171 16 -81 27 -154 24 -161 -3 -8 -15 -17 -27 -20 -40 -12
-244 -19 -250 -9 -5 8 -45 281 -50 343 -2 27 -14 25 236 38 32 2 37 -1 37 -20z
m-1659 -3 c36 -19 30 -31 -28 -57 -57 -25 -120 -18 -152 16 l-22 24 43 15 c56
20 122 21 159 2z m3379 3 c0 -7 -34 -33 -75 -58 -41 -25 -75 -48 -75 -52 0
-12 71 -55 114 -68 38 -12 176 -9 251 6 l30 6 -30 -19 c-55 -36 -146 -125
-189 -187 -45 -63 -86 -137 -86 -156 0 -6 24 -10 56 -10 73 0 68 -14 -22 -60
-65 -33 -146 -102 -170 -144 -10 -18 -12 -19 -33 -4 -19 14 -22 26 -24 92 -2
43 0 80 3 84 3 4 22 16 43 26 21 11 63 46 92 78 54 58 121 178 112 201 -3 7
-47 20 -98 30 -116 21 -218 70 -294 138 -30 28 -55 54 -55 59 0 4 21 17 48 28
41 18 69 20 225 21 135 1 177 -2 177 -11z m620 -8 c8 -5 12 -11 9 -14 -5 -5
-142 -36 -160 -36 -21 0 -6 21 29 39 39 21 98 27 122 11z m-3463 -62 c6 -7 27
-86 48 -176 l39 -163 -17 -72 c-26 -108 -47 -243 -47 -301 0 -71 15 -118 55
-171 19 -25 35 -49 35 -53 0 -4 -14 -16 -31 -26 -24 -14 -41 -16 -82 -11 -66
9 -120 31 -115 47 2 6 30 20 61 31 31 10 57 23 57 28 0 5 -40 41 -90 80 -49
39 -90 73 -90 74 0 2 19 15 43 28 65 38 70 47 56 101 -8 31 -23 56 -49 79 -32
30 -46 35 -109 41 -41 4 -69 11 -65 17 16 26 111 61 181 66 l73 6 -16 25 c-16
24 -16 26 2 39 10 7 24 13 32 13 25 0 6 25 -29 37 -19 6 -100 25 -179 42 -135
29 -196 53 -191 76 1 6 19 9 39 7 94 -7 262 39 262 72 0 7 -12 18 -27 25 -26
12 -27 13 -8 24 11 6 47 14 80 17 33 4 63 8 66 9 4 0 11 -5 16 -11z"/>
</g>
</svg>
